<svg width="32" height="42" viewBox="0 0 32 42" fill="none" xmlns="http://www.w3.org/2000/svg">
<path d="M16 0C7.30337 0 0.25 7.05337 0.25 15.75C0.25 25.8667 7.85691 30.2898 9.53846 32.3077C13.5769 37.1538 13.8051 42 16 42C18.1949 42 18.4231 37.1538 22.4615 32.3077C24.1431 30.2898 31.75 25.8667 31.75 15.75C31.75 7.05337 24.6966 0 16 0ZM16 26.25C10.2014 26.25 5.5 21.5486 5.5 15.75C5.5 9.95137 10.2014 5.25 16 5.25C21.7986 5.25 26.5 9.95137 26.5 15.75C26.5 21.5486 21.7986 26.25 16 26.25ZM16 10.5C13.102 10.5 10.75 12.852 10.75 15.75C10.75 18.648 13.102 21 16 21C18.898 21 21.25 18.648 21.25 15.75C21.25 12.852 18.898 10.5 16 10.5Z" fill="#CCE5FA"/>
</svg>
