<svg width="25" height="22" viewBox="0 0 25 22" fill="none" xmlns="http://www.w3.org/2000/svg">
<g clip-path="url(#clip0_1369_1073)">
<path d="M19.6177 1.1803C18.7744 1.36073 17.9273 1.542 17.6122 2.03873L15.1733 6.41228L2.07758 9.21442L1.547 10.6118L11.5681 11.4647L9.86787 15.2509L6.06743 16.0641L5.11326 17.5521L7.85499 17.8201L8.16763 19.0371C8.3077 19.4685 8.79932 19.7565 9.21896 19.6667L10.4858 19.3956L11.9543 21.6492L12.9084 20.1611L11.9705 16.5101L14.7221 13.3536L19.9723 21.6467L21.031 20.5656L17.8001 7.9887L20.7671 3.93144C21.0862 3.43387 20.8781 2.6238 20.669 1.80994C20.5654 1.40681 20.0373 1.09051 19.6177 1.1803Z" fill="currentColor"/>
</g>
<defs>
<clipPath id="clip0_1369_1073">
<rect width="24.1058" height="22" fill="white" transform="translate(0.191895)"/>
</clipPath>
</defs>
</svg>
